<svg class="github-icon" xmlns="http://www.w3.org/2000/svg" viewBox="0 0 24 24"><path d="M12 0C5.373 0 0 5.373 0 12c0 5.275 3.438 9.73 8.205 11.318.6.111.818-.258.818-.577 0-.284-.01-1.04-.015-2.04-3.338.724-4.042-1.61-4.042-1.61-.546-1.384-1.333-1.754-1.333-1.754-1.089-.741.083-.726.083-.726 1.205.084 1.838 1.236 1.838 1.236 1.07 1.836 2.809 1.305 3.495.998.109-.776.417-1.305.76-1.605-2.665-.305-5.467-1.332-5.467-5.93 0-1.31.465-2.385 1.235-3.225-.124-.31-.535-1.535.116-3.195 0 0 1.015-.325 3.325 1.235.965-.268 1.995-.402 3.025-.407 1.03.005 2.06.139 3.025.407 2.31-1.56 3.325-1.235 3.325-1.235.652 1.66.24 2.885.116 3.195.77.84 1.234 1.915 1.234 3.225 0 4.61-2.805 5.62-5.475 5.92.43.37.815 1.103.815 2.22 0 1.605-.015 2.895-.015 3.285 0 .319.21.694.825.577C20.565 21.73 24 17.275 24 12c0-6.627-5.373-12-12-12z"/></svg>
